<svg width="62" height="62" viewBox="0 0 62 62" fill="none" xmlns="http://www.w3.org/2000/svg">
<path d="M53.8954 46.1964C53.8954 50.4503 50.45 53.8958 46.1961 53.8958C41.9422 53.8958 38.4967 50.4503 38.4967 46.1964C38.4967 41.9425 41.9422 38.4971 46.1961 38.4971C50.45 38.4971 53.8954 41.9425 53.8954 46.1964Z" fill="white"/>
<path d="M45.0872 61.5948C42.0043 61.5948 38.9214 60.8248 36.2239 58.9L12.3315 46.1961C10.4047 44.6562 8.86329 43.8863 7.32185 42.3464C2.69752 37.7268 0 31.1824 0 24.6379C0 18.0935 2.69752 11.934 7.32185 7.31438C11.9462 2.69477 18.1119 0 24.6631 0C31.2142 0 37.38 2.69477 42.3896 7.31438C43.9311 8.85425 44.7018 10.0092 46.2432 11.934L59.7308 36.5719C63.5845 43.1163 62.4284 51.2007 57.0333 56.5902C53.5651 60.0549 49.7115 61.5948 45.0872 61.5948ZM24.6631 3.84967C19.268 3.84967 13.873 6.15948 10.0194 10.0092C6.16576 13.8588 3.8536 19.2484 3.8536 24.6379C3.8536 30.4124 6.16576 35.417 10.0194 39.2667C11.1754 40.4216 12.3315 41.1915 14.2583 42.3464L38.536 55.4353C40.8482 56.9752 43.1604 57.3601 45.4725 57.3601C48.9408 57.3601 52.0236 56.2052 54.3358 53.5105C58.5748 49.2758 59.3455 43.1163 56.2626 38.1118L42.775 13.4739C41.6189 11.934 40.8482 10.7791 39.6921 9.62418C35.4531 6.15948 30.4435 3.84967 24.6631 3.84967Z" fill="white"/>
<path d="M40.7257 27.7118C41.8192 27.3213 42.549 26.2856 42.549 25.1245C42.549 23.9635 41.8192 22.9278 40.7257 22.5373L38.0231 21.572C37.4487 21.3669 36.9606 20.9405 36.7668 20.3622C36.5385 19.6809 36.5288 18.9365 36.83 18.284L37.8737 16.0226C38.3563 14.977 38.1359 13.7415 37.3216 12.9272C36.5073 12.1129 35.2717 11.8925 34.2261 12.3751L31.9647 13.4188C31.3123 13.7199 30.5679 13.7103 29.8866 13.482C29.3082 13.2882 28.8819 12.8001 28.6767 12.2257L27.7115 9.52301C27.321 8.42959 26.2853 7.69971 25.1242 7.69971C23.9632 7.69971 22.9274 8.42959 22.5369 9.52301L21.5717 12.2257C21.3665 12.8001 20.9402 13.2882 20.3619 13.482C19.6805 13.7103 18.9361 13.7199 18.2837 13.4188L16.0223 12.3751C14.9767 11.8925 13.7411 12.1129 12.9268 12.9272C12.1125 13.7415 11.8922 14.977 12.3747 16.0226L13.4184 18.284C13.7196 18.9365 13.71 19.6808 13.4816 20.3622C13.2878 20.9405 12.7998 21.3669 12.2253 21.572L9.52267 22.5373C8.42925 22.9278 7.69937 23.9635 7.69937 25.1245C7.69937 26.2856 8.42925 27.3213 9.52267 27.7118L12.2253 28.6771C12.7998 28.8822 13.2878 29.3086 13.4816 29.8869C13.71 30.5682 13.7196 31.3126 13.4184 31.9651L12.3747 34.2264C11.8922 35.272 12.1125 36.5076 12.9268 37.3219C13.7411 38.1362 14.9767 38.3566 16.0223 37.874L18.5381 36.7129C19.0297 36.486 19.6443 36.538 20.1186 36.7991C20.7785 37.1624 21.4211 37.6019 21.6745 38.3112L22.5369 40.7261C22.9274 41.8195 23.9632 42.5494 25.1242 42.5494C26.2853 42.5494 27.321 41.8195 27.7115 40.7261L28.6767 38.0234C28.8819 37.449 29.3082 36.9609 29.8866 36.7671C30.5679 36.5388 31.3123 36.5292 31.9647 36.8303L34.2261 37.874C35.2717 38.3566 36.5073 38.1362 37.3216 37.3219C38.1359 36.5076 38.3563 35.272 37.8737 34.2264L36.7125 31.7106C36.4856 31.219 36.5376 30.6045 36.7988 30.1301C37.162 29.4703 37.6015 28.8276 38.3109 28.5743L40.7257 27.7118ZM25.1242 30.9328C22.0265 30.9328 19.3159 28.2223 19.3159 25.1245C19.3159 22.0268 22.0265 19.3163 25.1242 19.3163C28.222 19.3163 30.9325 22.0268 30.9325 25.1245C30.9325 28.2223 28.222 30.9328 25.1242 30.9328Z" fill="white"/>
</svg>
