<svg width="62" height="59" viewBox="0 0 62 59" fill="none" xmlns="http://www.w3.org/2000/svg">
<path fill-rule="evenodd" clip-rule="evenodd" d="M38.9987 11.2256V25.7707C39.0797 30.5045 35.4995 34.4121 31 34.5C26.5005 34.4121 22.92 30.5045 23.0014 25.7707V11.2256C22.9221 6.49325 26.5019 2.58804 31 2.5C35.4981 2.58804 39.0779 6.49325 38.9987 11.2256Z" stroke="white" stroke-width="5" stroke-linecap="round" stroke-linejoin="round"/>
<path d="M15.6185 36.1056C14.376 35.136 12.5802 35.354 11.6075 36.5928C10.6348 37.8313 10.8535 39.6216 12.096 40.5916L15.6185 36.1056ZM49.9038 40.5916C51.1465 39.6216 51.3651 37.8313 50.3926 36.5928C49.4196 35.354 47.6238 35.136 46.3816 36.1056L49.9038 40.5916ZM33.8571 44.258C33.8571 42.685 32.5779 41.4097 31 41.4097C29.4221 41.4097 28.1428 42.685 28.1428 44.258H33.8571ZM28.1428 55.6516C28.1428 57.2247 29.4221 58.5 31 58.5C32.5779 58.5 33.8571 57.2247 33.8571 55.6516H28.1428ZM12.096 40.5916C23.1996 49.2575 38.8003 49.2575 49.9038 40.5916L46.3816 36.1056C37.347 43.157 24.653 43.157 15.6185 36.1056L12.096 40.5916ZM28.1428 44.258V55.6516H33.8571V44.258H28.1428Z" fill="white"/>
</svg>
