<svg width="62" height="61" viewBox="0 0 62 61" fill="none" xmlns="http://www.w3.org/2000/svg">
<path fill-rule="evenodd" clip-rule="evenodd" d="M47.997 17.7698V43.2237C48.1744 51.5078 40.3427 58.3462 30.5 58.5C20.6573 58.3462 12.8249 51.5078 13.003 43.2237V17.7698C12.8296 9.48818 20.6605 2.65407 30.5 2.5C40.3396 2.65407 48.1705 9.48818 47.997 17.7698Z" stroke="white" stroke-width="5" stroke-linecap="round" stroke-linejoin="round"/>
<path d="M39.2547 29.674C40.4901 29.2963 41.7846 30.1238 41.661 31.4098C41.3474 34.6726 39.5165 37.7398 36.4613 39.5038C31.4393 42.4033 25.0176 40.6826 22.1181 35.6605C19.2186 30.6385 20.9393 24.2168 25.9613 21.3173C29.0163 19.5536 32.5877 19.5012 35.57 20.8605C36.7456 21.3963 36.8151 22.9313 35.8702 23.8123C35.1723 24.4631 34.1308 24.526 33.2234 24.2307C31.532 23.6802 29.6231 23.822 27.9613 24.7814C24.8524 26.5763 23.7873 30.5516 25.5822 33.6605C27.3771 36.7694 31.3524 37.8346 34.4613 36.0397C36.1232 35.0802 37.2003 33.4976 37.569 31.7574C37.7669 30.8237 38.342 29.9531 39.2547 29.674Z" fill="#566EC3"/>
</svg>
