<svg width="67" height="66" viewBox="0 0 67 66" fill="none" xmlns="http://www.w3.org/2000/svg">
<path d="M23.1674 9.27778H13.5229C9.66475 9.27778 7.73425 9.27778 6.26065 10.0165C4.9644 10.6663 3.91129 11.7024 3.25085 12.9778C2.5 14.4276 2.5 16.327 2.5 20.1229V52.6562C2.5 56.4521 2.5 58.3492 3.25085 59.799C3.91129 61.0742 4.9644 62.1122 6.26065 62.7619C7.7328 63.5 9.66097 63.5 13.5116 63.5H46.5996C50.4501 63.5 52.3756 63.5 53.8477 62.7619C55.1439 62.1122 56.2006 61.0732 56.8609 59.798C57.6111 58.3496 57.6111 56.4545 57.6111 52.6661V43.1667M43.8333 12.6667L23.1667 33V43.1667H33.5L54.1667 22.8333M43.8333 12.6667L54.1667 2.5L64.5 12.6667L54.1667 22.8333M43.8333 12.6667L54.1667 22.8333" stroke="white" stroke-width="5" stroke-linecap="round" stroke-linejoin="round"/>
</svg>
