<svg width="100" height="90" viewBox="0 0 100 90" fill="none" xmlns="http://www.w3.org/2000/svg">
<path d="M60.2222 34.75L50 24.5M50 24.5L39.7778 34.75M50 24.5V55.25M96 86L79.0091 77.4812C77.7211 76.8355 77.0771 76.5126 76.402 76.2851C75.8029 76.0831 75.186 75.9371 74.5599 75.8489C73.8546 75.75 73.1344 75.75 71.6946 75.75H20.3556C14.6305 75.75 11.7681 75.75 9.58144 74.6327C7.65797 73.6503 6.09418 72.082 5.11417 70.1535C4 67.961 4 65.0905 4 59.35V20.4C4 14.6594 4 11.7892 5.11417 9.5966C6.09418 7.66791 7.65797 6.09987 9.58144 5.1172C11.7681 4 14.6306 4 20.3556 4H79.6444C85.3694 4 88.2321 4 90.4187 5.1172C92.342 6.09987 93.906 7.66791 94.8858 9.5966C96 11.7892 96 14.6595 96 20.4V86Z" stroke="white" stroke-width="8" stroke-linecap="round" stroke-linejoin="round"/>
</svg>
