<svg width="53" height="56" viewBox="0 0 53 56" fill="none" xmlns="http://www.w3.org/2000/svg">
<path fill-rule="evenodd" clip-rule="evenodd" d="M26.5 18C20.701 18 16 22.4771 16 28C16 33.5229 20.701 38 26.5 38C32.2991 38 37 33.5229 37 28C37 22.4771 32.2991 18 26.5 18ZM20.2 28C20.2 24.6864 23.0207 22 26.5 22C29.9793 22 32.8 24.6864 32.8 28C32.8 31.3136 29.9793 34 26.5 34C23.0207 34 20.2 31.3136 20.2 28Z" fill="white"/>
<path fill-rule="evenodd" clip-rule="evenodd" d="M26.4341 1.1064e-06C25.2771 -2.49401e-05 24.3109 -2.50631e-05 23.5178 0.0540996C22.6922 0.110464 21.9124 0.231945 21.1564 0.545233C19.402 1.27222 18.0082 2.66662 17.2815 4.42171C16.9032 5.33542 16.8007 6.29836 16.7616 7.34501C16.7301 8.18639 16.3057 8.8884 15.6793 9.25019C15.0529 9.61197 14.233 9.62869 13.4889 9.23526C12.5633 8.74582 11.6785 8.35309 10.6983 8.22401C8.81566 7.97604 6.91162 8.48645 5.4051 9.64291C4.75587 10.1413 4.26077 10.7562 3.7992 11.4433C3.35579 12.1033 2.87279 12.9403 2.2942 13.9429L2.22845 14.0568C1.64983 15.0594 1.16681 15.8963 0.817123 16.6105C0.453115 17.3539 0.168359 18.0903 0.0615334 18.902C-0.186329 20.7854 0.323872 22.6902 1.47984 24.1975C2.08159 24.9817 2.86384 25.5522 3.7502 26.1093C4.46302 26.5573 4.85858 27.2762 4.85853 28C4.8585 28.7236 4.46294 29.4425 3.7502 29.8905C2.86373 30.4476 2.0814 31.018 1.47961 31.8025C0.323611 33.3096 -0.186563 35.2144 0.061273 37.0978C0.168099 37.9094 0.452854 38.646 0.816863 39.3894C1.16655 40.1036 1.64957 40.9404 2.22817 41.943L2.29394 42.057C2.87253 43.0596 3.35553 43.8965 3.79894 44.5565C4.26051 45.2436 4.75561 45.8585 5.40484 46.3568C6.91136 47.5133 8.8154 48.0238 10.6981 47.7758C11.6782 47.6466 12.5629 47.2541 13.4885 46.7647C14.2327 46.3711 15.0527 46.3878 15.6792 46.7498C16.3057 47.1116 16.7301 47.8136 16.7616 48.6551C16.8007 49.7017 16.9032 50.6646 17.2815 51.5783C18.0082 53.3334 19.402 54.7279 21.1564 55.4548C21.9124 55.7682 22.6922 55.8896 23.5178 55.9458C24.3109 56 25.2771 56 26.4341 56H26.5656C27.7229 56 28.6888 56 29.4821 55.9458C30.3077 55.8896 31.0875 55.7682 31.8436 55.4548C33.5979 54.7279 34.9919 53.3334 35.7185 51.5783C36.0968 50.6646 36.1992 49.7017 36.2382 48.6549C36.2697 47.8136 36.6941 47.1116 37.3205 46.7496C37.947 46.3878 38.7671 46.3711 39.5112 46.7644C40.4368 47.2538 41.3215 47.6466 42.3017 47.7756C44.1844 48.0235 46.0884 47.5133 47.5948 46.3568C48.2442 45.8583 48.7391 45.2436 49.2007 44.5565C49.6441 43.8965 50.1271 43.0596 50.7056 42.057L50.7715 41.943C51.35 40.9404 51.8332 40.1033 52.1829 39.3891C52.5469 38.6457 52.8315 37.9094 52.9385 37.0978C53.1863 35.2141 52.676 33.3093 51.52 31.8023C50.9183 31.0177 50.136 30.4476 49.2497 29.8905C48.5368 29.4425 48.1413 28.7236 48.1413 27.9997C48.1413 27.2762 48.5368 26.5575 49.2494 26.1095C50.1362 25.5524 50.9186 24.9823 51.5203 24.1975C52.6763 22.6904 53.1866 20.7856 52.9387 18.9022C52.8317 18.0905 52.5471 17.3541 52.1832 16.6106C51.8335 15.8965 51.3505 15.0597 50.7718 14.0572L50.7061 13.9432C50.1274 12.9406 49.6444 12.1035 49.201 11.4435C48.7394 10.7564 48.2444 10.1415 47.5951 9.64307C46.0887 8.48663 44.1847 7.97622 42.3017 8.22419C41.3217 8.35327 40.437 8.74595 39.5115 9.23537C38.7673 9.62885 37.9472 9.6121 37.3208 9.25026C36.6944 8.88845 36.2697 8.18634 36.2382 7.34488C36.1992 6.29826 36.0968 5.33537 35.7185 4.42171C34.9919 2.66662 33.5979 1.27222 31.8436 0.545233C31.0875 0.231945 30.3077 0.110464 29.4821 0.0540996C28.6888 -2.50631e-05 27.7229 -2.49401e-05 26.5656 1.1064e-06H26.4341ZM22.6508 4.15481C22.8518 4.07157 23.157 3.99481 23.7837 3.95201C24.428 3.90805 25.2602 3.90698 26.5 3.90698C27.7398 3.90698 28.5719 3.90805 29.2161 3.95201C29.843 3.99481 30.1481 4.07157 30.3489 4.15481C31.1464 4.48526 31.7801 5.11908 32.1102 5.91686C32.2146 6.16849 32.3008 6.56078 32.3357 7.4909C32.4128 9.55477 33.4776 11.542 35.3681 12.6338C37.2583 13.7257 39.5112 13.6546 41.3363 12.6895C42.1588 12.2546 42.5418 12.1333 42.8115 12.0977C43.6673 11.985 44.5328 12.217 45.2175 12.7427C45.3901 12.8751 45.6091 13.1011 45.9595 13.6227C46.3199 14.159 46.7367 14.8793 47.3566 15.9535C47.9765 17.0277 48.3918 17.7491 48.6759 18.3293C48.9521 18.8937 49.0383 19.1965 49.0667 19.4121C49.1794 20.2682 48.9474 21.1341 48.422 21.8191C48.2562 22.0352 47.9599 22.3062 47.1718 22.8014C45.424 23.9003 44.2362 25.8163 44.2359 27.9997C44.2359 30.1835 45.4237 32.0997 47.1718 33.1986C47.9596 33.6938 48.2559 33.9647 48.4217 34.1808C48.9472 34.8659 49.1791 35.7316 49.0664 36.5878C49.038 36.8035 48.9518 37.1061 48.6756 37.6706C48.3915 38.2506 47.9763 38.9721 47.3564 40.0463C46.7364 41.1204 46.3196 41.8409 45.9593 42.3772C45.6088 42.8986 45.3899 43.1247 45.2172 43.257C44.5325 43.7829 43.6671 44.0147 42.8113 43.9022C42.5415 43.8665 42.1585 43.7451 41.3361 43.3104C39.5109 42.3451 37.258 42.2743 35.3676 43.3661C33.4776 44.458 32.4128 46.4451 32.3357 48.509C32.3008 49.4391 32.2146 49.8314 32.1102 50.0833C31.7801 50.8808 31.1464 51.5148 30.3489 51.8453C30.1481 51.9284 29.843 52.0052 29.2161 52.048C28.5719 52.092 27.7398 52.093 26.5 52.093C25.2602 52.093 24.428 52.092 23.7837 52.048C23.157 52.0052 22.8518 51.9284 22.6508 51.8453C21.8536 51.5148 21.2199 50.8808 20.8896 50.0833C20.7854 49.8314 20.699 49.4391 20.6643 48.509C20.5871 46.4454 19.5223 44.458 17.6319 43.3661C15.7415 42.2743 13.4888 42.3454 11.6636 43.3104C10.841 43.7454 10.4583 43.8668 10.1883 43.9022C9.33255 44.015 8.46709 43.7829 7.78232 43.2573C7.6098 43.125 7.39076 42.8989 7.04034 42.3772C6.68014 41.8411 6.26317 41.1207 5.64325 40.0465C5.02331 38.9724 4.60819 38.2509 4.32411 37.6708C4.04777 37.1064 3.96164 36.8035 3.93326 36.5878C3.82061 35.7316 4.05251 34.8659 4.57797 34.1808C4.74371 33.9649 5.04013 33.6938 5.82795 33.1986C7.57596 32.1 8.76382 30.1837 8.76392 28.0003C8.76405 25.8163 7.57614 23.9 5.82798 22.8011C5.04034 22.3059 4.74394 22.035 4.5782 21.8189C4.05277 21.1339 3.82087 20.2681 3.93352 19.4119C3.9619 19.1963 4.04803 18.8935 4.32438 18.3291C4.60845 17.7489 5.02357 17.0275 5.64349 15.9533C6.26343 14.8791 6.68037 14.1588 7.0406 13.6226C7.39102 13.101 7.61006 12.8749 7.78255 12.7425C8.46735 12.2169 9.33281 11.9849 10.1886 12.0976C10.4585 12.1331 10.8413 12.2544 11.664 12.6894C13.4891 13.6545 15.7417 13.7255 17.632 12.6337C19.5223 11.5419 20.5871 9.55483 20.6643 7.49103C20.699 6.56083 20.7854 6.16852 20.8896 5.91686C21.2199 5.11908 21.8536 4.48526 22.6508 4.15481Z" fill="white"/>
</svg>
