<svg width="68" height="62" viewBox="0 0 68 62" fill="none" xmlns="http://www.w3.org/2000/svg">
<path d="M16.7778 20.5H51.2222M16.7778 34.5H35.4983M65 59L53.5496 53.1823C52.6816 52.7413 52.2476 52.5208 51.7926 52.3654C51.3889 52.2275 50.9732 52.1278 50.5512 52.0676C50.0759 52 49.5906 52 48.6203 52H14.0222C10.1641 52 8.235 52 6.7614 51.237C5.46515 50.566 4.41129 49.4951 3.75085 48.178C3 46.6807 3 44.7204 3 40.8V14.2C3 10.2796 3 8.31944 3.75085 6.82207C4.41129 5.50492 5.46515 4.43405 6.7614 3.76296C8.235 3 10.1641 3 14.0222 3H53.9778C57.8359 3 59.7651 3 61.2387 3.76296C62.5348 4.43405 63.5888 5.50492 64.2491 6.82207C65 8.31944 65 10.2796 65 14.2V59Z" stroke="white" stroke-width="6" stroke-linecap="round" stroke-linejoin="round"/>
</svg>
