<svg width="68" height="62" viewBox="0 0 68 62" fill="none" xmlns="http://www.w3.org/2000/svg">
<path d="M14.0222 52H48.6203ZM65 59L53.5496 53.1823C52.6816 52.7413 52.2476 52.5208 51.7926 52.3654C51.3889 52.2275 50.9732 52.1278 50.5512 52.0676C50.0759 52 49.5906 52 48.6203 52H14.0222C10.1641 52 8.235 52 6.7614 51.237C5.46515 50.566 4.41129 49.4951 3.75085 48.178C3 46.6807 3 44.7204 3 40.8V14.2C3 10.2796 3 8.31944 3.75085 6.82207C4.41129 5.50492 5.46515 4.43405 6.7614 3.76296C8.235 3 10.1641 3 14.0222 3H53.9778C57.8359 3 59.7651 3 61.2387 3.76296C62.5348 4.43405 63.5888 5.50492 64.2491 6.82207C65 8.31944 65 10.2796 65 14.2V59Z" stroke="white" stroke-width="6" stroke-linecap="round" stroke-linejoin="round"/>
<path d="M42.3864 26.7855C43.6218 26.4077 44.9163 27.2353 44.7927 28.5212C44.4792 31.784 42.6483 34.8512 39.5931 36.6152C34.571 39.5147 28.1493 37.7941 25.2498 32.772C22.3503 27.7499 24.071 21.3282 29.0931 18.4287C32.148 16.665 35.7194 16.6127 38.7017 17.972C39.8773 18.5078 39.9468 20.0427 39.0019 20.9238C38.304 21.5746 37.2626 21.6374 36.3551 21.3421C34.6638 20.7917 32.7548 20.9335 31.0931 21.8928C27.9842 23.6877 26.919 27.6631 28.7139 30.772C30.5088 33.8809 34.4842 34.9461 37.5931 33.1511C39.2549 32.1916 40.332 30.609 40.7008 28.8688C40.8986 27.9352 41.4738 27.0645 42.3864 26.7855Z" fill="#566EC3"/>
</svg>
